<?xml version="1.0" encoding="UTF-8" standalone="no"?>
<svg
   xmlns:dc="http://purl.org/dc/elements/1.1/"
   xmlns:cc="http://creativecommons.org/ns#"
   xmlns:rdf="http://www.w3.org/1999/02/22-rdf-syntax-ns#"
   xmlns:svg="http://www.w3.org/2000/svg"
   xmlns="http://www.w3.org/2000/svg"
   xmlns:sodipodi="http://sodipodi.sourceforge.net/DTD/sodipodi-0.dtd"
   xmlns:inkscape="http://www.inkscape.org/namespaces/inkscape"
   inkscape:version="1.0 (4035a4f, 2020-05-01)"
   sodipodi:docname="alpfa_logo.svg"
   id="svg106"
   version="1.1"
   fill="none"
   viewBox="0 0 30 30"
   height="30"
   width="30">
  <metadata
     id="metadata112">
    <rdf:RDF>
      <cc:Work
         rdf:about="">
        <dc:format>image/svg+xml</dc:format>
        <dc:type
           rdf:resource="http://purl.org/dc/dcmitype/StillImage" />
        <dc:title></dc:title>
      </cc:Work>
    </rdf:RDF>
  </metadata>
  <defs
     id="defs110" />
  <sodipodi:namedview
     inkscape:current-layer="svg106"
     inkscape:window-maximized="0"
     inkscape:window-y="74"
     inkscape:window-x="163"
     inkscape:cy="11.714506"
     inkscape:cx="8.904281"
     inkscape:zoom="13.009601"
     showgrid="false"
     id="namedview108"
     inkscape:window-height="756"
     inkscape:window-width="921"
     inkscape:pageshadow="2"
     inkscape:pageopacity="0"
     guidetolerance="10"
     gridtolerance="10"
     objecttolerance="10"
     borderopacity="1"
     bordercolor="#666666"
     pagecolor="#ffffff" />
  <rect
     style="stroke-width:1"
     id="rect104"
     fill="#ee3524"
     rx="14.4"
     height="28.799999"
     width="28.799999"
     y="0.599998"
     x="0.599976" />
  <path
     inkscape:transform-center-y="1.3067273"
     inkscape:transform-center-x="-1.8447914"
     d="m 15.142663,5.8351968 c 1.27294,0 1.67285,0.877152 2.00657,1.755672 0.14222,0.37282 3.44853,9.0888292 3.54703,9.3504292 0.0268,0.0732 0.0099,0.1939 -0.1084,0.2359 -0.1169,0.0434 -1.83478,0.686 -1.92912,0.7213 -0.09576,0.0339 -0.20277,-0.0163 -0.23657,-0.1071 -0.0352,-0.0909 -0.74771,-1.9902 -0.82797,-2.2045 -0.23657,0 -4.66229,0 -4.89885,0 -0.08026,0.2129 -0.79982,2.1177 -0.83361,2.2045 -0.0338,0.0867 -0.13659,0.145 -0.23656,0.1071 -0.09998,-0.038 -1.8263361,-0.6833 -1.9305371,-0.7213 -0.09716,-0.0366 -0.140811,-0.1437 -0.107017,-0.2359 0.121099,-0.3267 3.3780841,-8.9030392 3.5442341,-9.3504292 0.32246,-0.8636 0.73786,-1.755672 2.0108,-1.755672 z M 9.3271259,21.432798 c -0.101384,0 -0.184463,0.0814 -0.184463,0.1831 v 2.0363 c 0,0.1017 0.08308,0.183 0.184463,0.183 H 20.958163 c 0.1014,0 0.1845,-0.0813 0.1845,-0.183 v -2.0363 c 0,-0.1017 -0.0817,-0.1831 -0.1845,-0.1831 z M 15.132803,8.6822286 13.475453,13.470658 h 3.34006 l -1.66159,-4.7884294 z"
     fill="#ffffff"
     id="path268" />
</svg>
