<svg width="35" height="20" viewBox="0 0 35 20" fill="none" xmlns="http://www.w3.org/2000/svg">
<path d="M32.1771 -9.15527e-05H2.89649C1.74026 -9.15527e-05 0.804932 0.89453 0.804932 1.99999V17.9998C0.804932 19.1057 1.7404 20.0001 2.89649 20.0001H32.1771C33.3329 20.0001 34.2683 19.1057 34.2683 17.9998V1.99999C34.2683 0.89453 33.3329 -9.15527e-05 32.1771 -9.15527e-05ZM8.15782 3.99988H9.17087C9.93675 3.99988 10.5761 4.41419 10.9415 5.00009H8.15782V3.99988ZM4.98783 5.99997C4.98783 4.8945 5.92337 3.99988 7.07939 3.99988H7.11221V9.99994H7.07939C5.92337 9.99994 4.98783 9.10552 4.98783 8.00006V5.99997ZM9.17087 16H4.98783V13.9999H9.17087V16ZM9.17087 9.99988H8.15782V7.99999H11.2623C11.2622 9.10546 10.3269 9.99988 9.17087 9.99988ZM11.2622 6.99998H8.15775V5.9999H11.2622V6.99998ZM16.1436 16H11.9607V13.9999H16.1436V16ZM23.1144 16H18.9297V13.9999H23.1144V16ZM30.0856 16H25.9025V13.9999H30.0856V16ZM26.9486 9.99988C26.1416 9.99988 25.4123 9.69901 24.8567 9.22258C24.3015 9.69908 23.5722 9.99988 22.7655 9.99988C21.0332 9.99988 19.6282 8.65607 19.6282 6.99998C19.6282 5.3437 21.0332 3.99988 22.7655 3.99988C23.5722 3.99988 24.3015 4.30062 24.8567 4.77738C25.4123 4.30062 26.1416 3.99988 26.9486 3.99988C28.6802 3.99988 30.0855 5.3437 30.0855 6.99998C30.0856 8.65613 28.6803 9.99988 26.9486 9.99988Z" fill="#BC0000"/>
</svg>
