<?xml version="1.0" encoding="UTF-8" standalone="no"?>
<svg
   xmlns:dc="http://purl.org/dc/elements/1.1/"
   xmlns:cc="http://creativecommons.org/ns#"
   xmlns:rdf="http://www.w3.org/1999/02/22-rdf-syntax-ns#"
   xmlns:svg="http://www.w3.org/2000/svg"
   xmlns="http://www.w3.org/2000/svg"
   xmlns:sodipodi="http://sodipodi.sourceforge.net/DTD/sodipodi-0.dtd"
   xmlns:inkscape="http://www.inkscape.org/namespaces/inkscape"
   inkscape:version="1.0 (4035a4f, 2020-05-01)"
   sodipodi:docname="Rectangle 4.svg"
   id="svg12"
   version="1.1"
   fill="none"
   viewBox="0 0 30 30"
   height="30"
   width="30">
  <metadata
     id="metadata18">
    <rdf:RDF>
      <cc:Work
         rdf:about="">
        <dc:format>image/svg+xml</dc:format>
        <dc:type
           rdf:resource="http://purl.org/dc/dcmitype/StillImage" />
        <dc:title></dc:title>
      </cc:Work>
    </rdf:RDF>
  </metadata>
  <defs
     id="defs16" />
  <sodipodi:namedview
     inkscape:current-layer="svg12"
     inkscape:window-maximized="0"
     inkscape:window-y="23"
     inkscape:window-x="0"
     inkscape:cy="18.908663"
     inkscape:cx="15.849848"
     inkscape:zoom="14.22972"
     showgrid="false"
     id="namedview14"
     inkscape:window-height="814"
     inkscape:window-width="814"
     inkscape:pageshadow="2"
     inkscape:pageopacity="0"
     guidetolerance="10"
     gridtolerance="10"
     objecttolerance="10"
     borderopacity="1"
     bordercolor="#666666"
     pagecolor="#ffffff" />
  <rect
     style="stroke-width:1"
     id="rect10"
     fill-opacity="0.1"
     fill="#000000"
     rx="14.4"
     height="28.799999"
     width="28.799999"
     y="0.60000598"
     x="0.599976" />
  <path
     d="m 12.15168,22.670882 v -2.72 h -1.739997 v -1.3 h 1.739997 v -1.78001 h -1.739997 v -1.52 H 12.15168 V 8.3908684 h 3.76 c 1.74667,0 3.04,0.353333 3.88,1.060003 0.85334,0.7066606 1.28004,1.7333306 1.28004,3.0800006 0,1.36 -0.46,2.42666 -1.38004,3.2 -0.92,0.76 -2.27333,1.14 -4.06,1.14 h -1.68 v 1.78001 h 3.3 v 1.3 h -3.3 v 2.72 z m 1.8,-7.32001 h 1.42 c 1.21334,0 2.15334,-0.2 2.82,-0.6 0.68,-0.4 1.02,-1.12 1.02,-2.16 0,-0.90667 -0.28,-1.58 -0.84,-2.02 -0.56,-0.44 -1.43333,-0.660001 -2.62,-0.660001 h -1.8 z"
     fill="#000000"
     fill-opacity="0.87"
     id="path20"
     style="stroke-width:0.999999" />
</svg>
