<svg width="46" height="48" viewBox="0 0 46 48" fill="none" xmlns="http://www.w3.org/2000/svg">
<path d="M45.0515 27.4285C45.0515 26.5536 44.7923 25.7385 44.3481 25.0541C44.5282 23.9266 44.6205 22.7735 44.6205 21.6208C44.6206 9.69911 34.9215 0 22.9998 0C11.078 0 1.37894 9.69911 1.37894 21.6208C1.37894 22.7738 1.47123 23.9271 1.65147 25.0549C1.20755 25.7391 0.948608 26.5539 0.948608 27.4284C0.948608 29.6066 2.54921 31.4177 4.63587 31.7483C5.74939 40.8928 13.5599 48 23.0001 48C32.4402 48 40.2509 40.8929 41.3643 31.7483C43.451 31.4178 45.0515 29.6068 45.0515 27.4285ZM2.59659 27.4285C2.59659 26.2124 3.3971 25.1801 4.49878 24.8299V29.4989C4.49878 29.6766 4.50187 29.8535 4.50691 30.03C3.40112 29.6824 2.59659 28.6476 2.59659 27.4285ZM23.0002 46.352C13.7072 46.352 6.14686 38.7917 6.14686 29.4988L6.14676 20.9783C6.14676 19.7055 6.8142 18.5794 7.93246 17.966C8.45373 17.6802 9.01611 17.5379 9.57632 17.5379C10.2063 17.5379 10.8333 17.718 11.3948 18.0758C14.8593 20.2841 18.8723 21.4514 22.9998 21.4514C27.1273 21.4514 31.1405 20.2841 34.6054 18.0757C35.6659 17.3997 36.96 17.3586 38.0673 17.9659C39.1854 18.5792 39.8532 19.7053 39.8532 20.9781L39.8535 29.4989C39.8535 38.7917 32.2931 46.352 23.0002 46.352ZM38.8598 16.5209C37.2167 15.6199 35.2953 15.6816 33.7196 16.686C30.5198 18.7255 26.8129 19.8035 22.9998 19.8035C19.1866 19.8035 15.48 18.7255 12.2806 16.6861C10.7047 15.6816 8.78271 15.62 7.13998 16.5211C5.48602 17.4284 4.49867 19.0945 4.49878 20.9783V23.1332C4.0085 23.227 3.54738 23.403 3.12961 23.6462C3.06204 22.9751 3.02692 22.2979 3.02692 21.6207C3.02692 10.6078 11.9867 1.64798 22.9998 1.64798C34.0128 1.64798 42.9726 10.6078 42.9726 21.6208C42.9726 22.2979 42.9375 22.9749 42.87 23.6459C42.4524 23.4028 41.9913 23.227 41.5013 23.1331L41.5012 20.978C41.5011 19.0943 40.5136 17.428 38.8598 16.5209ZM41.4933 30.03C41.4984 29.8535 41.5015 29.6766 41.5015 29.4989L41.5013 24.8299C42.6031 25.18 43.4036 26.2124 43.4036 27.4285C43.4036 28.6476 42.5992 29.6824 41.4933 30.03Z" fill="black" fill-opacity="0.32"/>
<path d="M15.4601 30.9303C16.2258 30.9303 16.8466 30.3095 16.8466 29.5437C16.8466 28.7779 16.2258 28.1571 15.4601 28.1571C14.6943 28.1571 14.0735 28.7779 14.0735 29.5437C14.0735 30.3095 14.6943 30.9303 15.4601 30.9303Z" fill="black" fill-opacity="0.32"/>
<path d="M30.7997 30.9302C31.5654 30.9302 32.1861 30.3094 32.1861 29.5437C32.1861 28.778 31.5654 28.1572 30.7997 28.1572C30.034 28.1572 29.4132 28.778 29.4132 29.5437C29.4132 30.3094 30.034 30.9302 30.7997 30.9302Z" fill="black" fill-opacity="0.32"/>
<path d="M13.2764 27.649C13.3951 27.649 13.5157 27.6233 13.6301 27.5688L16.7496 26.0834C17.1605 25.8878 17.335 25.396 17.1393 24.9852C16.9437 24.5744 16.4521 24.3993 16.0411 24.5955L12.9216 26.081C12.5107 26.2766 12.3362 26.7683 12.5319 27.1792C12.6731 27.4757 12.9684 27.649 13.2764 27.649Z" fill="black" fill-opacity="0.32"/>
<path d="M29.2502 26.0833L32.3697 27.5688C32.4841 27.6233 32.6047 27.649 32.7234 27.649C33.0314 27.649 33.3268 27.4756 33.468 27.179C33.6636 26.7682 33.4892 26.2765 33.0784 26.0809L29.9588 24.5954C29.5476 24.3993 29.0562 24.5743 28.8607 24.9851C28.665 25.396 28.8394 25.8878 29.2502 26.0833Z" fill="black" fill-opacity="0.32"/>
<path d="M32.5236 33.4006C30.4259 34.6821 28.0178 35.3596 25.5598 35.3596H20.4412C17.9832 35.3596 15.5751 34.6822 13.4772 33.4006C13.089 33.1636 12.5817 33.2859 12.3445 33.6743C12.1073 34.0626 12.2299 34.5697 12.6182 34.807C14.9748 36.2466 17.68 37.0074 20.4412 37.0074H25.5598C28.3211 37.0074 31.0262 36.2465 33.3828 34.807C33.7712 34.5697 33.8936 34.0625 33.6564 33.6742C33.4192 33.2861 32.912 33.1635 32.5236 33.4006Z" fill="black" fill-opacity="0.32"/>
<path d="M25.5593 37.8848H20.4407C19.9856 37.8848 19.6167 38.2537 19.6167 38.7088C19.6167 39.1638 19.9856 39.5328 20.4407 39.5328H25.5593C26.0144 39.5328 26.3833 39.1638 26.3833 38.7088C26.3833 38.2537 26.0144 37.8848 25.5593 37.8848Z" fill="black" fill-opacity="0.32"/>
</svg>
