<svg width="32" height="48" viewBox="0 0 32 48" fill="none" xmlns="http://www.w3.org/2000/svg">
<path d="M28.0051 5.94227C26.5867 5.94227 25.4327 4.7883 25.4327 3.36976C25.4327 2.98145 25.118 2.66663 24.7296 2.66663H22.2648C21.8764 2.66663 21.5616 2.98145 21.5616 3.36976C21.5616 3.75808 21.8764 4.07289 22.2648 4.07289H24.0886C24.3806 5.70443 25.6705 6.99424 27.302 7.28628V24.0484C27.302 24.4367 27.6167 24.7515 28.0051 24.7515C28.3935 24.7515 28.7082 24.4367 28.7082 24.0484V6.64549C28.7082 6.25709 28.3935 5.94227 28.0051 5.94227Z" fill="#BC0000"/>
<path d="M30.8056 0H1.19409C0.805687 0 0.490967 0.314814 0.490967 0.703128V41.2714C0.490967 41.6597 0.805687 41.9745 1.19409 41.9745H6.35993C6.74833 41.9745 7.06305 41.6597 7.06305 41.2714C7.06305 40.883 6.74833 40.5682 6.35993 40.5682H1.89722V1.40635H30.1025V40.5683H27.8096L27.3415 39.3188C28.5536 38.3565 29.3334 36.8716 29.3334 35.2072C29.3334 34.3101 29.1068 33.4649 28.7083 32.7256V26.8904C28.7083 26.5021 28.3936 26.1873 28.0052 26.1873C27.6168 26.1873 27.3021 26.5021 27.3021 26.8904V31.0647C26.4127 30.3723 25.2962 29.9583 24.0844 29.9583C21.19 29.9583 18.8353 32.313 18.8353 35.2074C18.8353 35.9993 19.0126 36.7504 19.328 37.4243H7.91131C7.61918 35.7927 6.32927 34.5029 4.69783 34.2108V7.28637C6.32937 6.99434 7.61918 5.70443 7.91131 4.07298H19.4228C19.8112 4.07298 20.1259 3.75817 20.1259 3.36986C20.1259 2.98154 19.8112 2.66673 19.4228 2.66673H7.27034C6.88193 2.66673 6.56721 2.98154 6.56721 3.36986C6.56721 4.7883 5.41314 5.94237 3.9947 5.94237C3.60629 5.94237 3.29157 6.25718 3.29157 6.6455V34.8516C3.29157 35.2399 3.60629 35.5547 3.9947 35.5547C5.41324 35.5547 6.56721 36.7087 6.56721 38.1272C6.56721 38.5156 6.88193 38.8304 7.27034 38.8304H20.2916C20.4586 39.0051 20.6374 39.1683 20.8268 39.3186L20.3587 40.5681H9.20169C8.81328 40.5681 8.49856 40.8829 8.49856 41.2713C8.49856 41.6596 8.81328 41.9744 9.20169 41.9744H19.8319L18.3678 45.8831C18.2315 46.2468 18.4159 46.652 18.7796 46.7882L21.8987 47.9565C22.2565 48.0906 22.6697 47.9024 22.8037 47.5447L24.084 44.1266L25.3643 47.5447C25.4981 47.9023 25.9116 48.0906 26.2693 47.9565L29.3885 46.7882C29.563 46.7227 29.7046 46.5907 29.7818 46.421C29.859 46.2512 29.8658 46.0578 29.8002 45.8831L28.336 41.9744H30.8052C31.1936 41.9744 31.5084 41.6596 31.5084 41.2713V0.703128C31.5087 0.314814 31.1939 0 30.8056 0ZM21.7336 46.3932L19.9314 45.7182L22.0553 40.048C22.6432 40.2953 23.2856 40.4372 23.9587 40.453L21.7336 46.3932ZM20.2414 35.2071C20.2414 33.0882 21.9653 31.3644 24.0841 31.3644C26.203 31.3644 27.9268 33.0883 27.9268 35.2071C27.9268 37.326 26.2028 39.0498 24.0841 39.0498C21.9653 39.0499 20.2414 37.3261 20.2414 35.2071ZM26.4348 46.3932L24.835 42.1223L25.5363 40.2501C25.7333 40.1933 25.9261 40.1264 26.1128 40.0478L28.2369 45.718L26.4348 46.3932Z" fill="#BC0000"/>
<path d="M9.42724 8.23082H8.75598C8.36758 8.23082 8.05286 8.54564 8.05286 8.93395C8.05286 9.32227 8.36767 9.63708 8.75598 9.63708H9.42724C9.81565 9.63708 10.1304 9.32227 10.1304 8.93395C10.1304 8.54564 9.81565 8.23082 9.42724 8.23082Z" fill="#BC0000"/>
<path d="M17.3706 8.23082H11.9442C11.5558 8.23082 11.2411 8.54564 11.2411 8.93395C11.2411 9.32227 11.5559 9.63708 11.9442 9.63708H17.3706C17.759 9.63708 18.0737 9.32227 18.0737 8.93395C18.0737 8.54564 17.759 8.23082 17.3706 8.23082Z" fill="#BC0000"/>
<path d="M9.42724 10.9387H8.75598C8.36758 10.9387 8.05286 11.2535 8.05286 11.6418C8.05286 12.0301 8.36767 12.3449 8.75598 12.3449H9.42724C9.81565 12.3449 10.1304 12.0301 10.1304 11.6418C10.1304 11.2535 9.81565 10.9387 9.42724 10.9387Z" fill="#BC0000"/>
<path d="M17.3706 10.9387H11.9442C11.5558 10.9387 11.2411 11.2535 11.2411 11.6418C11.2411 12.0301 11.5559 12.3449 11.9442 12.3449H17.3706C17.759 12.3449 18.0737 12.0301 18.0737 11.6418C18.0737 11.2535 17.759 10.9387 17.3706 10.9387Z" fill="#BC0000"/>
<path d="M24.5968 14.6116H7.40393C7.01562 14.6116 6.70081 14.9264 6.70081 15.3148C6.70081 15.7031 7.01553 16.0179 7.40393 16.0179H24.5968C24.9852 16.0179 25.2999 15.7031 25.2999 15.3148C25.2999 14.9265 24.9852 14.6116 24.5968 14.6116Z" fill="#BC0000"/>
<path d="M9.76256 17.9314H9.09131C8.7029 17.9314 8.38818 18.2463 8.38818 18.6346C8.38818 19.0229 8.703 19.3377 9.09131 19.3377H9.76256C10.151 19.3377 10.4657 19.0229 10.4657 18.6346C10.4657 18.2463 10.151 17.9314 9.76256 17.9314Z" fill="#BC0000"/>
<path d="M22.573 17.9314H13.6598C13.2714 17.9314 12.9567 18.2463 12.9567 18.6346C12.9567 19.0229 13.2714 19.3377 13.6598 19.3377H22.573C22.9614 19.3377 23.2761 19.0229 23.2761 18.6346C23.2761 18.2463 22.9614 17.9314 22.573 17.9314Z" fill="#BC0000"/>
<path d="M22.5729 20.2597H20.4554C20.067 20.2597 19.7523 20.5745 19.7523 20.9628C19.7523 21.3511 20.067 21.6659 20.4554 21.6659H22.5729C22.9613 21.6659 23.276 21.3511 23.276 20.9628C23.276 20.5745 22.9613 20.2597 22.5729 20.2597Z" fill="#BC0000"/>
<path d="M18.0046 20.2597H9.09131C8.7029 20.2597 8.38818 20.5745 8.38818 20.9628C8.38818 21.3511 8.7029 21.6659 9.09131 21.6659H18.0045C18.3929 21.6659 18.7077 21.3511 18.7077 20.9628C18.7077 20.5745 18.3929 20.2597 18.0046 20.2597Z" fill="#BC0000"/>
<path d="M18.0046 23.6602H9.09131C8.7029 23.6602 8.38818 23.9751 8.38818 24.3634C8.38818 24.7517 8.7029 25.0665 9.09131 25.0665H18.0045C18.3929 25.0665 18.7077 24.7517 18.7077 24.3634C18.7077 23.9751 18.3929 23.6602 18.0046 23.6602Z" fill="#BC0000"/>
<path d="M18.0046 25.6351H9.09131C8.7029 25.6351 8.38818 25.9499 8.38818 26.3382C8.38818 26.7265 8.7029 27.0414 9.09131 27.0414H18.0045C18.3929 27.0414 18.7078 26.7265 18.7078 26.3382C18.7078 25.9499 18.393 25.6351 18.0046 25.6351Z" fill="#BC0000"/>
<path d="M12.2096 32.547H9.09131C8.7029 32.547 8.38818 32.8618 8.38818 33.2502C8.38818 33.6385 8.703 33.9533 9.09131 33.9533H12.2096C12.598 33.9533 12.9128 33.6385 12.9128 33.2502C12.9128 32.8618 12.598 32.547 12.2096 32.547Z" fill="#BC0000"/>
<path d="M9.76256 30.381H9.09131C8.7029 30.381 8.38818 30.6958 8.38818 31.0842C8.38818 31.4725 8.703 31.7873 9.09131 31.7873H9.76256C10.151 31.7873 10.4657 31.4725 10.4657 31.0842C10.4657 30.6958 10.151 30.381 9.76256 30.381Z" fill="#BC0000"/>
</svg>
