<svg width="44" height="48" viewBox="0 0 44 48" fill="none" xmlns="http://www.w3.org/2000/svg">
<path d="M41.1988 0H12.4003C11.0755 0.00140618 10.0018 1.07507 10.0004 2.39988L10.0005 2.40025L10.0004 2.40063V29.5992H1.20081C0.988568 29.5991 0.785047 29.6833 0.635055 29.8334C0.484968 29.9835 0.400785 30.187 0.400879 30.3991V42.3978C0.400317 45.4904 2.90631 47.9983 5.99897 47.9999C6.05522 47.9999 6.11221 47.9991 6.16846 47.9976H37.999C41.0901 47.9938 43.5949 45.4889 43.5987 42.3979V2.39997C43.5973 1.07507 42.5236 0.00140618 41.1988 0ZM6.12084 46.3976C5.03771 46.4405 3.98523 46.0321 3.21474 45.2696C2.43553 44.5178 1.99708 43.4805 2.00074 42.3979V31.1993H10.0004V42.1979C10.0371 44.4096 8.32854 46.2592 6.12084 46.3976ZM41.9987 42.3979C41.9961 44.6059 40.2069 46.3951 37.9989 46.3977H9.83315C10.9617 45.2915 11.5985 43.7782 11.6002 42.1979V2.40072L11.6002 2.40035L11.6002 2.39997C11.6005 1.95824 11.9585 1.60033 12.4002 1.60004H41.1987C41.6404 1.60033 41.9984 1.95834 41.9986 2.39997V42.3979H41.9987Z" fill="#BC0000"/>
<path d="M38.7989 12.0002H33.1992C32.7574 12.0002 32.3993 12.3583 32.3993 12.8002C32.3993 13.242 32.7574 13.6001 33.1992 13.6001H38.7989C39.2407 13.6001 39.5988 13.242 39.5988 12.8002C39.5988 12.3583 39.2407 12.0002 38.7989 12.0002Z" fill="#BC0000"/>
<path d="M38.7989 5.60052H33.1992C32.7574 5.60052 32.3993 5.95863 32.3993 6.40045C32.3993 6.84228 32.7574 7.20038 33.1992 7.20038H38.7989C39.2407 7.20038 39.5988 6.84228 39.5988 6.40045C39.5988 5.95863 39.2407 5.60052 38.7989 5.60052Z" fill="#BC0000"/>
<path d="M38.7989 8.80033H33.1992C32.7574 8.80033 32.3993 9.15844 32.3993 9.60026C32.3993 10.0421 32.7574 10.4002 33.1992 10.4002H38.7989C39.2407 10.4002 39.5988 10.0421 39.5988 9.60026C39.5988 9.15844 39.2407 8.80033 38.7989 8.80033Z" fill="#BC0000"/>
<path d="M38.7989 15.2H33.1992C32.7574 15.2 32.3993 15.5581 32.3993 16C32.3993 16.4418 32.7574 16.7999 33.1992 16.7999H38.7989C39.2407 16.7999 39.5988 16.4418 39.5988 16C39.5988 15.5581 39.2407 15.2 38.7989 15.2Z" fill="#BC0000"/>
<path d="M38.7989 18.3998H33.1992C32.7574 18.3998 32.3993 18.758 32.3993 19.1998C32.3993 19.6416 32.7574 19.9997 33.1992 19.9997H38.7989C39.2407 19.9997 39.5988 19.6415 39.5988 19.1998C39.5988 18.758 39.2407 18.3998 38.7989 18.3998Z" fill="#BC0000"/>
<path d="M38.7987 21.5997H13.9999C13.5581 21.5997 13.2 21.9579 13.2 22.3997C13.2 22.8415 13.5581 23.1996 13.9999 23.1996H38.7986C39.2404 23.1996 39.5985 22.8415 39.5985 22.3997C39.5985 21.9579 39.2405 21.5997 38.7987 21.5997Z" fill="#BC0000"/>
<path d="M38.7987 24.7996H13.9999C13.5581 24.7996 13.2 25.1578 13.2 25.5995C13.2 26.0413 13.5581 26.3994 13.9999 26.3994H38.7986C39.2404 26.3994 39.5985 26.0412 39.5985 25.5995C39.5986 25.1577 39.2405 24.7996 38.7987 24.7996Z" fill="#BC0000"/>
<path d="M38.7991 27.9994H28.3995C27.9577 27.9994 27.5996 28.3575 27.5996 28.7993C27.5996 29.2411 27.9577 29.5992 28.3995 29.5992H38.799C39.2408 29.5992 39.5989 29.2411 39.5989 28.7993C39.5989 28.3575 39.2409 27.9994 38.7991 27.9994Z" fill="#BC0000"/>
<path d="M23.5994 27.9994H13.9999C13.5581 27.9994 13.2 28.3575 13.2 28.7993C13.2 29.2411 13.5581 29.5992 13.9999 29.5992H23.5994C24.0412 29.5992 24.3993 29.2411 24.3993 28.7993C24.3993 28.3575 24.0412 27.9994 23.5994 27.9994Z" fill="#BC0000"/>
<path d="M38.7991 31.1993H28.3995C27.9577 31.1993 27.5996 31.5575 27.5996 31.9992C27.5996 32.4409 27.9577 32.7991 28.3995 32.7991H38.799C39.2408 32.7991 39.5989 32.441 39.5989 31.9992C39.5989 31.5574 39.2409 31.1993 38.7991 31.1993Z" fill="#BC0000"/>
<path d="M23.5994 31.1993H13.9999C13.5581 31.1993 13.2 31.5575 13.2 31.9992C13.2 32.4409 13.5581 32.7991 13.9999 32.7991H23.5994C24.0412 32.7991 24.3993 32.441 24.3993 31.9992C24.3993 31.5574 24.0412 31.1993 23.5994 31.1993Z" fill="#BC0000"/>
<path d="M38.7991 34.3991H28.3995C27.9577 34.3991 27.5996 34.7572 27.5996 35.199C27.5996 35.6408 27.9577 35.9989 28.3995 35.9989H38.799C39.2408 35.9989 39.5989 35.6408 39.5989 35.199C39.5989 34.7572 39.2409 34.3991 38.7991 34.3991Z" fill="#BC0000"/>
<path d="M23.5994 34.3991H13.9999C13.5581 34.3991 13.2 34.7572 13.2 35.199C13.2 35.6408 13.5581 35.9989 13.9999 35.9989H23.5994C24.0412 35.9989 24.3993 35.6408 24.3993 35.199C24.3993 34.7572 24.0412 34.3991 23.5994 34.3991Z" fill="#BC0000"/>
<path d="M38.7991 37.5989H28.3995C27.9577 37.5989 27.5996 37.957 27.5996 38.3988C27.5996 38.8406 27.9577 39.1987 28.3995 39.1987H38.799C39.2408 39.1987 39.5989 38.8406 39.5989 38.3988C39.5989 37.957 39.2409 37.5989 38.7991 37.5989Z" fill="#BC0000"/>
<path d="M23.5994 37.5989H13.9999C13.5581 37.5989 13.2 37.957 13.2 38.3988C13.2 38.8406 13.5581 39.1987 13.9999 39.1987H23.5994C24.0412 39.1987 24.3993 38.8406 24.3993 38.3988C24.3993 37.957 24.0412 37.5989 23.5994 37.5989Z" fill="#BC0000"/>
<path d="M38.7991 40.7988H28.3995C27.9577 40.7988 27.5996 41.1569 27.5996 41.5987C27.5996 42.0405 27.9577 42.3986 28.3995 42.3986H38.799C39.2408 42.3986 39.5989 42.0405 39.5989 41.5987C39.5989 41.1569 39.2409 40.7988 38.7991 40.7988Z" fill="#BC0000"/>
<path d="M23.5994 40.7988H13.9999C13.5581 40.7988 13.2 41.1569 13.2 41.5987C13.2 42.0405 13.5581 42.3986 13.9999 42.3986H23.5994C24.0412 42.3986 24.3993 42.0405 24.3993 41.5987C24.3993 41.1569 24.0412 40.7988 23.5994 40.7988Z" fill="#BC0000"/>
<path d="M13.9999 13.7238V18.3999C14.0011 19.283 14.7167 19.9986 15.5999 19.9998H28.3992C29.2824 19.9987 29.998 19.283 29.9992 18.3999V13.7238C30.5078 13.2549 30.7977 12.5952 30.7991 11.9033V8.80034C30.798 7.91717 30.0823 7.20161 29.1992 7.20039H27.5992V5.60054C27.5981 4.71736 26.8824 4.00181 25.9993 4.00059H17.9997C17.1165 4.00171 16.401 4.71736 16.3997 5.60054V7.20049H14.7998C13.9166 7.20161 13.201 7.91726 13.1998 8.80044V11.9034C13.2014 12.5951 13.4914 13.2549 13.9999 13.7238ZM28.3992 18.3999H15.5999V14.3903C15.6327 14.3915 15.6636 14.4 15.6967 14.4H21.1996V15.2C21.1996 15.6418 21.5577 15.9999 21.9995 15.9999C22.4413 15.9999 22.7994 15.6418 22.7994 15.2V14.4H28.3023C28.3355 14.4 28.3663 14.3914 28.3991 14.3903V18.3999H28.3992ZM17.9998 5.60054H25.9993V7.20049H17.9998V5.60054ZM14.8 8.80034H29.1992V11.9033C29.1987 12.3984 28.7975 12.7996 28.3024 12.8002H15.6967C15.2017 12.7996 14.8004 12.3984 14.7999 11.9033V8.80034H14.8Z" fill="#BC0000"/>
</svg>
