<svg width="30" height="30" viewBox="0 0 30 30" fill="none" xmlns="http://www.w3.org/2000/svg">
<path d="M15 0.599998C12.1517 0.599999 9.36741 1.44467 6.99923 3.02719C4.63105 4.60971 2.78537 6.85899 1.69562 9.49055C0.605873 12.1221 0.321006 15.0177 0.877051 17.8112C1.4331 20.6047 2.80508 23.1705 4.81947 25.1842C6.83386 27.1978 9.40018 28.5689 12.1938 29.1239C14.9875 29.679 17.883 29.3931 20.5142 28.3024C23.1454 27.2117 25.394 25.3652 26.9756 22.9965C28.5573 20.6277 29.401 17.8431 29.4 14.9948C29.3986 11.1766 27.8809 7.51524 25.1805 4.81584C22.4801 2.11643 18.8182 0.599998 15 0.599998V0.599998ZM11.9518 22.0607C12.1048 22.1462 12.2381 22.263 12.3429 22.4034C12.4478 22.5438 12.5219 22.7047 12.5604 22.8756C12.6396 23.2083 12.584 23.5587 12.4057 23.8504C12.2974 24.0246 12.1449 24.1669 11.9637 24.2629C11.7825 24.359 11.5791 24.4053 11.3742 24.3971C11.1316 24.3946 10.8925 24.3401 10.6728 24.2372L9.99711 23.9175C8.53438 23.1118 7.31909 21.9225 6.48208 20.4775C5.64506 19.0325 5.21804 17.3866 5.24697 15.7169V14.2728C5.2215 12.5993 5.6527 10.9505 6.4942 9.50381C7.3357 8.05708 8.55567 6.86712 10.0229 6.06189L10.6831 5.75243C10.9031 5.65124 11.1423 5.59848 11.3845 5.59771C11.5893 5.59009 11.7925 5.63663 11.9736 5.73261C12.1547 5.8286 12.3073 5.97064 12.416 6.14441C12.5044 6.28787 12.5636 6.44739 12.5901 6.61379C12.6167 6.78019 12.6101 6.95019 12.5708 7.11404C12.533 7.28868 12.4583 7.45319 12.3515 7.59645C12.2447 7.7397 12.1084 7.85836 11.9518 7.94441C11.0972 8.34676 10.3765 8.98688 9.87617 9.78815C9.37583 10.5894 9.117 11.5179 9.13064 12.4625V17.5736C9.12422 18.5127 9.38638 19.434 9.88622 20.229C10.3861 21.024 11.1028 21.6596 11.9518 22.0607ZM24.7324 15.7169C24.7603 17.3876 24.3317 19.0343 23.4928 20.4794C22.6539 21.9245 21.4366 23.1132 19.9719 23.9175L19.2963 24.2372C19.0768 24.3407 18.8374 24.3952 18.5948 24.3971C18.3899 24.4053 18.1865 24.359 18.0053 24.2629C17.8241 24.1669 17.6716 24.0246 17.5633 23.8504C17.3902 23.5568 17.3349 23.2084 17.4086 22.8756C17.4471 22.7047 17.5212 22.5438 17.6261 22.4034C17.731 22.263 17.8642 22.1462 18.0172 22.0607C18.8739 21.6613 19.5977 21.024 20.1025 20.2249C20.6072 19.4257 20.8716 18.4982 20.8642 17.553V12.4625C20.874 11.5207 20.6128 10.596 20.1117 9.79856C19.6105 9.00114 18.8906 8.36467 18.0378 7.96504C17.8805 7.87853 17.7432 7.75989 17.6348 7.61682C17.5264 7.47376 17.4493 7.30948 17.4086 7.13467C17.3341 6.80357 17.3895 6.45652 17.5633 6.16504C17.6716 5.9909 17.8241 5.84856 18.0053 5.75253C18.1865 5.6565 18.3899 5.61019 18.5948 5.61834C18.8371 5.61846 19.0764 5.67125 19.2963 5.77306L19.9564 6.08252C21.4244 6.88687 22.645 8.07664 23.4866 9.52358C24.3282 10.9705 24.759 12.6197 24.7324 14.2934V15.7169Z" fill="#00B3E1"/>
</svg>
