<?xml version="1.0" encoding="UTF-8" standalone="no"?>
<svg
   xmlns:dc="http://purl.org/dc/elements/1.1/"
   xmlns:cc="http://creativecommons.org/ns#"
   xmlns:rdf="http://www.w3.org/1999/02/22-rdf-syntax-ns#"
   xmlns:svg="http://www.w3.org/2000/svg"
   xmlns="http://www.w3.org/2000/svg"
   xmlns:sodipodi="http://sodipodi.sourceforge.net/DTD/sodipodi-0.dtd"
   xmlns:inkscape="http://www.inkscape.org/namespaces/inkscape"
   inkscape:version="1.0 (4035a4f, 2020-05-01)"
   sodipodi:docname="raif.svg"
   id="svg12"
   version="1.1"
   fill="none"
   viewBox="0 0 30 30"
   height="30"
   width="30">
  <metadata
     id="metadata18">
    <rdf:RDF>
      <cc:Work
         rdf:about="">
        <dc:format>image/svg+xml</dc:format>
        <dc:type
           rdf:resource="http://purl.org/dc/dcmitype/StillImage" />
        <dc:title></dc:title>
      </cc:Work>
    </rdf:RDF>
  </metadata>
  <defs
     id="defs16" />
  <sodipodi:namedview
     inkscape:current-layer="svg12"
     inkscape:window-maximized="0"
     inkscape:window-y="139"
     inkscape:window-x="635"
     inkscape:cy="14.920647"
     inkscape:cx="12.40567"
     inkscape:zoom="17.513398"
     showgrid="false"
     id="namedview14"
     inkscape:window-height="775"
     inkscape:window-width="831"
     inkscape:pageshadow="2"
     inkscape:pageopacity="0"
     guidetolerance="10"
     gridtolerance="10"
     objecttolerance="10"
     borderopacity="1"
     bordercolor="#666666"
     pagecolor="#ffffff" />
  <path
     style="stroke-width:1.04235"
     id="path10"
     fill="#faeb00"
     d="m 3.3000317e-4,14.99587 c 0,8.265969 6.73943709683,14.966859 15.05296899683,14.966859 8.31351,0 15.052942,-6.70089 15.052942,-14.966859 0,-8.2659683 -6.739432,-14.9668622 -15.052942,-14.9668622 -8.3135319,0 -15.05296899683,6.7008939 -15.05296899683,14.9668622 z" />
  <path
     fill-rule="evenodd"
     clip-rule="evenodd"
     d="m 15.308589,17.569691 6.49403,6.5158 2.543,-2.5534 -6.4992,-6.53398 1.2662,-1.26457 v -2.54175 l 0.9033,-0.90638 0.0026,2.10563 0.8839,0.87382 3.1684,-3.19117 0.8568,0.85027 c 0,-0.54727 -0.158,-2.4363004 -1.6689,-3.9173704 -1.6895,-1.6556733 -3.3774,-0.689583 -3.9622,-0.10116 l -3.0614,3.07938 0.7623,0.7668804 -1.68883,1.69012 -1.68421,-1.69012 0.76342,-0.7668804 -3.06417,-3.07938 c -0.581319,-0.588423 -2.2712793,-1.5545133 -3.9651193,0.10116 -1.50278,1.48107 -1.630866,3.3718204 -1.630866,3.9204504 l 0.823096,-0.85335 3.16954,3.19117 0.8839403,-0.88275 v -2.0967 l 0.905429,0.90638 -0.0029,2.5341 1.26912,1.27312 -6.4360793,6.46688 2.54018,2.5516 z"
     fill="#000000"
     id="path20" />
</svg>
