<svg width="30" height="29" viewBox="0 0 30 29" fill="none" xmlns="http://www.w3.org/2000/svg">
<path d="M0.606925 13.3696C0.600538 13.1431 0.838338 12.9952 1.04119 13.0963C3.3208 14.4156 5.6004 15.6982 7.88001 17.0175C8.35799 17.3107 8.87274 17.7871 9.35072 17.7871C9.8287 17.7871 10.3435 17.3107 10.8214 17.0175C16.4101 13.8293 21.9989 10.641 27.5508 7.4528C27.8082 7.30622 27.9185 7.34286 28.0288 7.59939C32.1095 16.0468 26.6461 26.2417 17.4029 28.0114C15.9169 28.2582 14.4801 28.2548 13.0275 28.048C5.39459 27.1558 0.808715 20.5267 0.606925 13.3696Z" fill="#2B9E2F"/>
<path d="M20.6843 0.600006C20.7266 0.600006 20.768 0.611872 20.8045 0.633292C20.8641 0.66825 20.9253 0.701726 20.9876 0.734258C21.6162 1.06216 21.6251 1.84368 21.0101 2.1963C20.4254 2.5315 19.8458 2.86669 19.2783 3.20189C16.1163 5.03421 12.9175 6.82987 9.75545 8.66219C9.53484 8.80877 9.351 8.80877 9.09363 8.66219C7.45145 7.6935 5.80927 6.75525 4.16709 5.81971C3.84971 5.6389 3.30568 5.47696 3.50068 5.16811C3.51283 5.14886 3.52651 5.12868 3.54169 5.1075C4.31381 4.11805 4.31381 4.11805 5.34331 4.74104C6.59342 5.43732 7.84352 6.17024 9.09363 6.86652C9.27747 6.97646 9.42454 6.97646 9.64514 6.86652C13.1588 4.82368 16.7088 2.81715 20.2228 0.774644C20.2544 0.75627 20.2857 0.74875 20.3214 0.741284C20.4334 0.717928 20.5476 0.600006 20.6619 0.600006C20.6693 0.600006 20.6767 0.600006 20.6843 0.600006Z" fill="#2B9E2F"/>
<path d="M0.873255 11.078C0.882786 11.0305 0.893915 10.9828 0.893915 10.9343C1.07775 9.50511 1.07775 9.50511 2.32786 10.2014C4.5707 11.484 6.77676 12.73 8.98283 14.0492C9.24021 14.1958 9.46082 14.1958 9.71819 14.0492C15.0495 10.971 20.3809 7.92932 25.6754 4.88768C26.0063 4.70445 26.1534 4.70445 26.4108 4.99762C27.1094 5.91377 27.1094 5.91377 26.1534 6.46347C20.675 9.61505 15.1966 12.7666 9.71819 15.9182C9.49758 16.0648 9.31374 16.0648 9.05637 15.9182C6.44586 14.4157 3.79857 12.9132 1.18806 11.4107C1.05369 11.3438 0.827247 11.3074 0.873255 11.078Z" fill="#2B9E2F"/>
<path d="M24.2013 2.80896C24.6596 3.11871 24.5839 3.76861 24.105 4.04553C22.5555 4.94158 21.0271 5.79978 19.4987 6.68331C16.2264 8.55227 12.9908 10.4212 9.71849 12.2902C9.46112 12.4368 9.27728 12.4734 8.98314 12.2902C6.70353 10.9709 4.42393 9.65166 2.10755 8.36904C1.77664 8.18581 1.77664 8.03922 1.92372 7.74605C2.43846 6.71996 2.43846 6.71996 3.39443 7.26965C5.23282 8.33239 7.10798 9.39514 8.94637 10.4579C9.24051 10.6045 9.42435 10.6045 9.68172 10.4579C14.2042 7.85599 18.7266 5.29075 23.2123 2.68887C23.5543 2.48433 23.8009 2.47006 24.0704 2.70506C24.1123 2.74156 24.1553 2.77786 24.2013 2.80896Z" fill="#2B9E2F"/>
</svg>
