<svg width="22" height="22" viewBox="0 0 22 22" fill="none" xmlns="http://www.w3.org/2000/svg">
<path d="M11.4195 5.93497L11.4386 5.90742C11.6011 5.66794 11.5331 5.49107 11.4245 5.39559L9.72061 4.33625C9.66009 4.29517 9.61058 4.23987 9.57641 4.17519C9.54224 4.11051 9.52447 4.03844 9.52465 3.9653C9.52465 3.7205 9.66959 3.5358 9.99891 3.44408C11.0498 3.15295 14.7456 3.0005 16.0012 3.0005C16.437 3.0005 17.1876 2.99862 17.8607 3.01709L17.8316 2.98829C15.9902 1.4021 13.6005 0.444809 10.9878 0.444809C5.16458 0.444809 0.444824 5.20307 0.444824 11.0736C0.444824 13.6543 1.35672 16.0197 2.87404 17.8607C4.19822 15.9414 7.46764 11.2076 8.18451 10.2412C9.01032 9.12707 10.8923 6.6487 11.2113 6.2286L11.227 6.2095L11.4195 5.93528V5.93497ZM4.30903 19.3529C6.18512 20.7857 8.48133 21.5598 10.8419 21.5552C16.7591 21.5552 21.5552 16.8001 21.5552 10.9336C21.5579 9.21915 21.1406 7.53011 20.3397 6.01416L20.3403 6.0151C20.7094 5.66262 21.1345 5.10477 20.8546 4.40606C20.7679 4.1982 20.3516 3.72613 20.2442 3.61156L20.2589 3.65194C20.5197 4.43236 20.0038 4.92102 19.6331 5.25378C19.43 5.4366 16.7099 7.97945 13.5194 10.7455C10.7076 13.1829 7.56218 15.6634 5.74058 17.0158C3.17769 18.9181 2.6787 19.1945 2.6787 19.1945C2.59672 19.2357 2.5068 19.2587 2.41512 19.2619C2.2586 19.2619 2.12274 19.1917 2.03696 19.0815L2.03415 19.0765L2.0282 19.1582C2.30274 19.599 2.75853 20.1108 3.02368 20.1108C3.10695 20.1108 3.21995 20.0795 3.28788 20.0441C3.28788 20.0441 3.48855 19.9327 4.30903 19.3523" fill="#E2001A"/>
</svg>
